<svg width="491" height="205" viewBox="0 0 491 205" fill="none" xmlns="http://www.w3.org/2000/svg">
<path d="M103.881 113.283C103.933 136.056 104.036 158.828 104.088 181.601C103.933 182.631 101.975 194.997 91.4647 199.685C81.418 204.167 68.0223 199.685 64.6734 191.854C63.9521 190.154 63.7975 188.505 63.7975 187.268C62.2519 186.908 60.7577 186.547 59.2121 186.186C51.5869 188.299 43.4464 186.032 38.0882 180.313C30.1538 171.812 33.1421 160.632 33.2967 160.065C30.6175 159.395 23.7136 157.334 18.3554 150.791C9.64819 140.126 12.791 126.936 13.2032 125.442C12.0697 124.824 2.74428 119.414 0.992538 108.131C-1.01681 95.0961 8.92688 86.4404 9.49362 85.9768C8.87536 84.7918 4.7021 76.5483 8.46319 67.3259C12.8941 56.4548 24.2288 54.0333 25.0532 53.8788C24.7956 51.9209 23.5075 40.4316 31.4419 31.5184C37.0577 25.2327 44.3223 23.584 47.156 22.9142C53.5962 21.4201 59.006 22.2445 62.0458 22.9142C64.931 15.4951 71.5773 10.2399 79.3571 9.15797C91.104 7.5608 98.6777 16.474 99.296 17.2469C103.521 22.399 104.191 28.0149 104.345 30.2818C104.294 41.2044 104.191 52.127 104.139 62.9981C101.718 66.5531 99.0384 68.8716 97.2351 70.2626C93.371 73.1479 88.734 76.5998 83.5304 75.93C82.0362 75.7239 80.2845 75.1572 79.151 76.1361C78.2751 76.9605 77.966 78.6092 78.6358 79.5881C79.3056 80.567 80.7997 80.6185 82.2938 80.5155C84.7154 80.4124 88.631 80.0002 93.9377 78.4031C93.2164 80.1548 92.0314 82.4733 89.816 84.5857C84.3547 89.7894 76.0082 87.8315 75.0808 91.335C74.8747 92.1593 74.9262 93.705 75.8536 94.4263C76.4204 94.89 77.1932 94.89 77.6054 94.89C85.2821 94.4778 90.3312 91.232 90.3312 91.232C98.7808 85.8222 102.696 76.0331 103.778 73.1479C103.881 83.9159 103.984 94.6839 104.036 105.452C102.542 106.482 100.533 108.08 98.6262 110.553C96.6684 113.077 95.5864 115.499 94.9682 117.25C90.2797 116.735 88.0127 115.035 86.7762 113.541C84.1486 110.398 85.5397 107.255 82.1393 103.288C81.6756 102.721 78.6873 99.2178 76.3688 100.042C75.1323 100.454 74.2049 102.103 74.5656 103.185C74.8747 104.215 76.1627 104.525 76.9871 104.885C81.3149 106.843 80.439 113.283 84.1486 117.508C85.4882 119.054 88.0127 120.908 93.0103 121.475C91.8253 125.133 90.898 128.276 90.3312 130.491C90.3312 130.491 86.1064 145.999 88.2188 156.871C88.4764 158.159 88.8886 159.498 89.9706 159.91C90.898 160.271 91.9284 159.807 92.5467 159.292C93.5256 158.416 93.8862 156.922 93.371 155.531C92.9073 149.864 92.9588 141.208 95.7925 131.264C97.9564 123.588 101.151 117.611 103.778 113.386L103.881 113.283Z" fill="#E590B7"/>
<path d="M21.1885 90.6139C21.6522 92.6748 22.8887 96.5389 26.1861 99.9393C32.6778 106.689 41.7457 106.173 43.1367 106.019C44.5794 109.728 44.5278 112.614 44.1672 114.52C43.7035 117.096 42.7246 118.436 41.0759 123.485C40.4061 125.494 39.9939 127.143 39.6848 128.225C39.5817 129.358 40.2515 130.337 41.1789 130.646C42.3124 131.058 43.7035 130.337 44.1157 129.049C44.6824 127.658 45.5067 125.649 46.4341 123.176C47.9798 119.157 48.7526 117.096 49.0617 115.241C49.3709 113.232 49.5254 110.089 48.2374 106.019C49.5254 106.225 51.5863 106.689 53.8017 107.977C56.0172 109.265 57.5113 110.759 58.3872 111.789C59.4176 112.459 60.7572 112.253 61.427 111.377C61.9422 110.656 61.9937 109.677 61.4785 108.853C59.4176 106.74 56.0172 103.906 51.2772 102.309C43.755 99.8363 39.015 102.618 33.2446 99.6302C30.823 98.3937 27.7317 95.8176 25.3102 90.0472C25.0526 88.8622 23.8676 88.0893 22.7857 88.3469C21.8067 88.553 21.137 89.4804 21.137 90.5624L21.1885 90.6139Z" fill="white"/>
<path d="M82.2424 184.332C82.7061 182.271 83.2213 178.252 81.7272 173.77C78.7389 164.908 70.2893 161.559 69.0013 161.044C67.4556 160.323 65.91 159.55 64.3643 158.828C63.2824 158.107 61.6337 156.768 60.1396 154.707C58.6454 152.594 57.9756 150.585 57.615 149.297C56.9452 148.215 55.6572 147.854 54.6782 148.37C53.9054 148.782 53.4417 149.709 53.5448 150.637C54.5237 153.47 56.3785 157.437 59.985 160.889C65.7554 166.351 71.2167 165.835 75.1324 170.988C76.7811 173.151 78.5328 176.758 78.2752 183.044C78.0176 184.229 78.7389 185.414 79.8208 185.671C80.7998 185.877 81.8302 185.362 82.2424 184.383V184.332Z" fill="white"/>
<path d="M88.8885 28.3753C86.7761 28.5298 82.8089 29.0966 78.8418 31.7757C71.1135 37.0824 70.1861 46.0987 70.0316 47.4898C66.1159 48.2626 63.3337 47.7474 61.4789 47.1291C59.0059 46.2533 57.8724 45.0683 53.1324 42.5952C51.2776 41.6163 49.732 40.895 48.65 40.4313C47.5681 40.1737 46.4861 40.6374 46.0224 41.5133C45.4557 42.5437 45.8679 44.0378 47.1044 44.6561C48.3924 45.4804 50.2472 46.6139 52.5142 47.902C56.2237 50.0659 58.13 51.1993 59.9333 51.7661C61.8396 52.3843 64.9309 53.1056 69.1557 52.4874C68.7435 53.7239 67.9192 55.6817 66.322 57.6396C64.7248 59.6489 62.9731 60.8339 61.7881 61.5037C60.9637 62.4311 60.9637 63.7706 61.685 64.595C62.3033 65.2132 63.2822 65.4193 64.1581 65.0587C66.5796 63.3585 69.9285 60.5248 72.247 56.0939C75.905 49.087 73.9472 43.9348 77.8629 38.7826C79.5116 36.6187 82.4998 33.9396 88.5794 32.497C89.8159 32.4455 90.7433 31.415 90.6402 30.2816C90.6402 29.3026 89.8159 28.4268 88.7339 28.3237L88.8885 28.3753Z" fill="white"/>
<path d="M201.154 42.0803C201.875 41.3589 203.318 40.1739 205.533 39.4526C207.285 38.8859 208.831 38.8859 209.758 38.989C209.603 37.9585 209.552 36.1553 210.325 34.1974C211.973 30.0757 215.941 28.6331 216.662 28.3755C216.868 29.0453 217.126 30.1272 217.023 31.4668C216.868 33.3731 216.044 34.7127 215.58 35.2794C216.25 34.5581 219.599 31.0546 224.905 30.9516C227.842 30.9516 230.058 31.9305 231.139 32.5487C230.212 33.6307 228.924 34.9703 227.172 36.2583C225.987 37.0826 224.905 37.7009 223.926 38.1646C225.163 38.0616 228.666 38.01 232.221 40.277C236.446 42.9561 237.734 47.1294 238.043 48.1598C237.219 48.6235 233.767 50.3237 229.388 49.2418C224.442 48.0052 222.175 44.0896 221.762 43.3683C221.969 44.3987 222.175 45.9444 221.969 47.7992C221.711 49.9631 221.041 51.6118 220.526 52.6422C219.959 52.4876 216.456 51.6633 214.549 48.2628C213.313 45.9959 213.416 43.832 213.519 42.9561C213.519 43.9866 213.468 45.9444 212.437 48.0052C211.716 49.4478 210.84 50.4783 210.17 51.0965C209.603 50.5813 208.006 49.0872 207.543 46.5111C206.821 42.6985 209.294 39.9163 209.603 39.5557C208.676 39.5042 207.233 39.5557 205.585 40.0194C203.472 40.6892 202.03 41.8742 201.308 42.5955C201.257 42.3894 201.154 42.1318 201.102 41.9257L201.154 42.0803Z" fill="#1B8D7B"/>
<path d="M179.618 60.6796C178.794 59.0309 180.339 56.8155 182.761 53.0029C182.761 53.0029 183.843 51.2511 190.695 38.8859C194.456 32.1366 196.053 26.2631 197.238 21.8323C200.793 8.69424 199.248 1.32665 202.854 0.141648C204.915 -0.528133 207.388 1.2236 211.974 4.41795C215.013 6.53033 216.868 7.8699 217.796 9.87924C220.166 15.0314 215.168 22.0384 213.004 25.1297C206.255 34.7642 198.372 46.7687 188.583 62.1222C187.14 62.3283 180.906 63.2042 179.566 60.6281L179.618 60.6796Z" fill="#1B8D7B"/>
<path d="M134.537 47.4387C145.463 47.4387 154.321 38.581 154.321 27.6544C154.321 16.7279 145.463 7.87012 134.537 7.87012C123.61 7.87012 114.752 16.7279 114.752 27.6544C114.752 38.581 123.61 47.4387 134.537 47.4387Z" fill="#A57EB3" stroke="white" stroke-width="6.44021" stroke-miterlimit="10"/>
<path d="M170.653 55.9397C181.58 55.9397 190.438 47.082 190.438 36.1554C190.438 25.2288 181.58 16.3711 170.653 16.3711C159.727 16.3711 150.869 25.2288 150.869 36.1554C150.869 47.082 159.727 55.9397 170.653 55.9397Z" fill="#A57EB3" stroke="white" stroke-width="6.44021" stroke-miterlimit="10"/>
<path d="M190.799 83.8645C201.725 83.8645 210.583 75.0068 210.583 64.0802C210.583 53.1536 201.725 44.2959 190.799 44.2959C179.872 44.2959 171.014 53.1536 171.014 64.0802C171.014 75.0068 179.872 83.8645 190.799 83.8645Z" fill="#A57EB3" stroke="white" stroke-width="6.44021" stroke-miterlimit="10"/>
<path d="M199.608 122.351C210.535 122.351 219.393 113.493 219.393 102.567C219.393 91.64 210.535 82.7822 199.608 82.7822C188.682 82.7822 179.824 91.64 179.824 102.567C179.824 113.493 188.682 122.351 199.608 122.351Z" fill="#A57EB3" stroke="white" stroke-width="6.44021" stroke-miterlimit="10"/>
<path d="M187.553 160.941C198.479 160.941 207.337 152.083 207.337 141.156C207.337 130.23 198.479 121.372 187.553 121.372C176.626 121.372 167.769 130.23 167.769 141.156C167.769 152.083 176.626 160.941 187.553 160.941Z" fill="#A57EB3" stroke="white" stroke-width="6.44021" stroke-miterlimit="10"/>
<path d="M166.274 187.268C177.2 187.268 186.058 178.411 186.058 167.484C186.058 156.557 177.2 147.7 166.274 147.7C155.347 147.7 146.49 156.557 146.49 167.484C146.49 178.411 155.347 187.268 166.274 187.268Z" fill="#A57EB3" stroke="white" stroke-width="6.44021" stroke-miterlimit="10"/>
<path d="M134.537 200.973C145.463 200.973 154.321 192.115 154.321 181.189C154.321 170.262 145.463 161.404 134.537 161.404C123.61 161.404 114.752 170.262 114.752 181.189C114.752 192.115 123.61 200.973 134.537 200.973Z" fill="#A57EB3" stroke="white" stroke-width="6.44021" stroke-miterlimit="10"/>
<path d="M131.703 173.667C142.629 173.667 151.487 164.809 151.487 153.882C151.487 142.956 142.629 134.098 131.703 134.098C120.776 134.098 111.918 142.956 111.918 153.882C111.918 164.809 120.776 173.667 131.703 173.667Z" fill="#A57EB3" stroke="white" stroke-width="6.44021" stroke-miterlimit="10"/>
<path d="M151.487 161.095C162.414 161.095 171.272 152.238 171.272 141.311C171.272 130.385 162.414 121.527 151.487 121.527C140.561 121.527 131.703 130.385 131.703 141.311C131.703 152.238 140.561 161.095 151.487 161.095Z" fill="#A57EB3" stroke="white" stroke-width="6.44021" stroke-miterlimit="10"/>
<path d="M131.703 142.908C142.629 142.908 151.487 134.05 151.487 123.124C151.487 112.197 142.629 103.339 131.703 103.339C120.776 103.339 111.918 112.197 111.918 123.124C111.918 134.05 120.776 142.908 131.703 142.908Z" fill="#A57EB3" stroke="white" stroke-width="6.44021" stroke-miterlimit="10"/>
<path d="M179.103 138.065C190.03 138.065 198.887 129.207 198.887 118.281C198.887 107.354 190.03 98.4966 179.103 98.4966C168.176 98.4966 159.319 107.354 159.319 118.281C159.319 129.207 168.176 138.065 179.103 138.065Z" fill="#A57EB3" stroke="white" stroke-width="6.44021" stroke-miterlimit="10"/>
<path d="M154.784 119.517C165.711 119.517 174.569 110.66 174.569 99.733C174.569 88.8065 165.711 79.9487 154.784 79.9487C143.858 79.9487 135 88.8065 135 99.733C135 110.66 143.858 119.517 154.784 119.517Z" fill="#A57EB3" stroke="white" stroke-width="6.44021" stroke-miterlimit="10"/>
<path d="M181.524 101.382C191.797 101.382 200.124 93.0545 200.124 82.7824C200.124 72.5103 191.797 64.1831 181.524 64.1831C171.252 64.1831 162.925 72.5103 162.925 82.7824C162.925 93.0545 171.252 101.382 181.524 101.382Z" fill="#A57EB3" stroke="white" stroke-width="6.07956" stroke-miterlimit="10"/>
<path d="M131.703 109.058C142.629 109.058 151.487 100.201 151.487 89.2741C151.487 78.3475 142.629 69.4897 131.703 69.4897C120.776 69.4897 111.918 78.3475 111.918 89.2741C111.918 100.201 120.776 109.058 131.703 109.058Z" fill="#A57EB3" stroke="white" stroke-width="6.44021" stroke-miterlimit="10"/>
<path d="M131.703 78.0423C142.629 78.0423 151.487 69.1845 151.487 58.2579C151.487 47.3314 142.629 38.4736 131.703 38.4736C120.776 38.4736 111.918 47.3314 111.918 58.2579C111.918 69.1845 120.776 78.0423 131.703 78.0423Z" fill="#A57EB3" stroke="white" stroke-width="6.44021" stroke-miterlimit="10"/>
<path d="M146.748 61.4007C156.052 61.4007 163.595 53.8578 163.595 44.5531C163.595 35.2485 156.052 27.7056 146.748 27.7056C137.443 27.7056 129.9 35.2485 129.9 44.5531C129.9 53.8578 137.443 61.4007 146.748 61.4007Z" fill="#A57EB3" stroke="white" stroke-width="5.51282" stroke-miterlimit="10"/>
<path d="M160.658 90.6139C172.182 90.6139 181.524 81.2717 181.524 69.7476C181.524 58.2235 172.182 48.8813 160.658 48.8813C149.134 48.8813 139.792 58.2235 139.792 69.7476C139.792 81.2717 149.134 90.6139 160.658 90.6139Z" fill="#A57EB3" stroke="white" stroke-width="6.80086" stroke-miterlimit="10"/>
<path d="M330.819 53.4175C331.347 55.9901 333.523 56.0561 333.523 57.3094V57.4413C333.523 57.9691 332.996 58.2329 332.138 58.2329H324.024C323.233 58.2329 322.705 57.9691 322.705 57.4413V57.3094C322.705 56.0561 325.41 55.9901 324.882 53.4175L319.077 20.5009L305.818 56.7817C305.422 57.7052 305.026 58.1669 304.103 58.1669C303.245 58.1669 302.718 57.7712 302.322 56.8476L288.931 19.7094L283.258 53.4175C282.796 55.9241 285.765 56.0561 285.765 57.3094V57.4413C285.765 57.9691 285.237 58.2329 284.445 58.2329H278.443C277.651 58.2329 277.123 57.9691 277.123 57.4413V57.3094C277.123 56.0561 279.3 55.9241 279.762 53.4175L286.161 16.1473C286.556 13.8385 283.984 13.7725 283.984 12.3873V12.2553C283.984 11.7276 284.379 11.3978 285.105 11.3978H289.459C290.712 11.3978 291.636 11.9915 292.031 13.1129L304.895 50.3831L318.154 13.0469C318.549 11.9915 319.275 11.3978 320.528 11.3978H325.212C325.739 11.3978 326.201 11.6616 326.201 12.1234V12.3213C326.201 13.6406 323.431 13.8385 323.958 16.675L330.819 53.4175ZM350.792 58.8926C340.304 58.8926 333.575 50.9108 333.575 41.9396C333.575 32.7704 340.568 25.9101 349.605 25.9101C359.5 25.9101 366.36 33.4301 366.36 42.6652C366.36 51.7683 360.093 58.8926 350.792 58.8926ZM351.584 56.7157C356.729 56.7157 360.555 52.0322 360.555 44.6441C360.555 35.409 355.674 28.0869 348.945 28.0869C343.338 28.0869 339.446 32.7045 339.446 40.0925C339.446 48.5361 344.328 56.7157 351.584 56.7157ZM399.965 53.4834C400.096 55.9241 402.339 55.9241 402.339 57.1775V57.4413C402.339 57.9691 401.812 58.2989 400.954 58.2989H393.104C392.247 58.2989 391.719 57.9691 391.719 57.4413V57.1775C391.719 55.9241 394.226 55.9241 394.094 53.5494L393.434 40.3564C393.104 32.3087 389.872 28.4827 385.32 28.4827C380.439 28.4827 377.075 32.3746 377.075 37.5859V53.6154C377.075 55.9241 379.713 55.9241 379.713 57.1775V57.4413C379.713 57.9691 379.186 58.2989 378.328 58.2989H370.082C369.291 58.2989 368.763 57.9691 368.763 57.4413V57.1775C368.763 55.9241 371.336 55.9241 371.336 53.6154V33.628C371.336 30.7915 368.565 30.9234 368.565 29.736V29.5381C368.565 29.0764 368.961 28.8125 369.621 28.5487L374.568 26.1739C375.821 25.5143 376.415 26.1739 376.415 27.1634V31.9788C378.328 28.2848 382.154 25.9101 386.706 25.9101C393.17 25.9101 398.579 30.2638 399.239 40.4883L399.965 53.4834ZM330.819 117.417C331.347 119.99 333.523 120.056 333.523 121.309V121.441C333.523 121.969 332.996 122.233 332.138 122.233H324.024C323.233 122.233 322.705 121.969 322.705 121.441V121.309C322.705 120.056 325.41 119.99 324.882 117.417L319.077 84.5009L305.818 120.782C305.422 121.705 305.026 122.167 304.103 122.167C303.245 122.167 302.718 121.771 302.322 120.848L288.931 83.7094L283.258 117.417C282.796 119.924 285.765 120.056 285.765 121.309V121.441C285.765 121.969 285.237 122.233 284.445 122.233H278.443C277.651 122.233 277.123 121.969 277.123 121.441V121.309C277.123 120.056 279.3 119.924 279.762 117.417L286.161 80.1473C286.556 77.8385 283.984 77.7725 283.984 76.3873V76.2553C283.984 75.7276 284.379 75.3978 285.105 75.3978H289.459C290.712 75.3978 291.636 75.9915 292.031 77.1129L304.895 114.383L318.154 77.0469C318.549 75.9915 319.275 75.3978 320.528 75.3978H325.212C325.739 75.3978 326.201 75.6616 326.201 76.1234V76.3213C326.201 77.6406 323.431 77.8385 323.958 80.675L330.819 117.417ZM360.423 112.932C361.017 112.008 362.534 112.206 362.336 113.46C361.545 117.417 357.191 122.893 348.945 122.893C340.436 122.893 333.641 116.428 333.641 106.137C333.641 96.8364 340.436 89.9101 349.209 89.9101C357.125 89.9101 361.479 95.1213 361.479 99.6729C361.479 101.784 360.357 102.905 358.378 103.565L340.106 109.568C341.623 115.241 345.647 118.671 350.99 118.671C355.872 118.671 358.972 116.098 360.423 112.932ZM348.22 92.021C342.876 92.021 339.38 97.2981 339.38 104.027C339.38 105.214 339.446 106.335 339.644 107.391L354.354 102.114C355.476 101.652 355.938 100.926 355.938 99.8048C355.938 96.8364 352.771 92.021 348.22 92.021ZM369.336 84.303C366.632 84.303 364.917 82.6539 364.917 80.2132C364.917 77.7725 366.632 76.0574 369.336 76.0574C371.909 76.0574 373.624 77.7725 373.624 80.2132C373.624 82.6539 371.909 84.303 369.336 84.303ZM365.51 122.233C364.719 122.233 364.257 121.903 364.257 121.375V121.112C364.257 119.858 366.632 119.858 366.632 117.549V97.8918C366.632 95.3192 364.257 94.7915 364.257 93.802V93.6701C364.257 93.2083 364.653 93.0104 365.246 92.6806L370.326 90.1739C371.711 89.5143 372.371 90.1739 372.371 91.0974V117.549C372.371 119.858 375.009 119.858 375.009 121.112V121.375C375.009 121.903 374.415 122.233 373.624 122.233H365.51ZM378.582 122.233C377.79 122.233 377.329 121.903 377.329 121.375V121.177C377.329 119.858 379.638 119.924 379.638 117.615V80.543C379.638 77.9704 377.329 77.5746 377.329 76.5851V76.4532C377.329 75.9255 377.659 75.7276 378.252 75.3978L383.398 72.8911C384.717 72.2315 385.442 72.9571 385.442 73.8146V117.615C385.442 119.924 388.015 119.858 388.015 121.177V121.375C388.015 121.903 387.487 122.233 386.696 122.233H378.582ZM391.533 122.233C390.741 122.233 390.28 121.903 390.28 121.375V121.177C390.28 119.858 392.588 119.924 392.588 117.615V80.543C392.588 77.9704 390.28 77.5746 390.28 76.5851V76.4532C390.28 75.9255 390.609 75.7276 391.203 75.3978L396.348 72.8911C397.668 72.2315 398.393 72.9571 398.393 73.8146V117.615C398.393 119.924 400.966 119.858 400.966 121.177V121.375C400.966 121.903 400.438 122.233 399.647 122.233H391.533ZM429.748 112.932C430.342 112.008 431.859 112.206 431.661 113.46C430.87 117.417 426.516 122.893 418.27 122.893C409.761 122.893 402.966 116.428 402.966 106.137C402.966 96.8364 409.761 89.9101 418.534 89.9101C426.45 89.9101 430.804 95.1213 430.804 99.6729C430.804 101.784 429.682 102.905 427.703 103.565L409.431 109.568C410.948 115.241 414.972 118.671 420.315 118.671C425.197 118.671 428.297 116.098 429.748 112.932ZM417.545 92.021C412.202 92.021 408.705 97.2981 408.705 104.027C408.705 105.214 408.771 106.335 408.969 107.391L423.679 102.114C424.801 101.652 425.263 100.926 425.263 99.8048C425.263 96.8364 422.096 92.021 417.545 92.021ZM462.804 116.56C462.804 121.375 466.498 119.33 466.498 121.243C466.498 122.365 465.179 122.629 462.409 122.629C459.44 122.629 457.461 121.441 457.593 117.747L457.461 117.352C455.548 120.848 451.986 122.893 447.303 122.893C440.112 122.893 435.099 117.615 435.099 107.853V96.1767C435.099 93.6701 432.658 93.4722 432.658 92.3508V92.1529C432.658 91.6911 433.054 91.2953 433.648 91.1634L439.189 90.1739C440.31 89.976 440.97 90.108 440.97 90.9655L440.904 108.314C440.904 115.966 443.675 120.32 448.688 120.32C453.371 120.32 457.065 116.362 457.065 110.293V96.1767C457.065 93.6701 454.493 93.5381 454.493 92.3508V92.1529C454.493 91.6911 454.823 91.2953 455.482 91.1634L461.089 90.1739C462.211 89.976 462.804 90.108 462.804 90.9655V116.56ZM484.271 89.9101C488.229 89.9101 490.34 92.2188 490.34 94.9894C490.34 96.7045 489.549 98.0897 487.702 98.0897C484.271 98.0897 485.92 93.4722 481.831 93.4722C478.203 93.4722 476.224 97.628 476.224 102.575V117.615C476.224 119.924 478.994 119.99 478.994 121.177V121.441C478.994 121.969 478.532 122.233 477.675 122.233H469.495C468.638 122.233 468.176 121.969 468.176 121.441V121.177C468.176 119.99 470.617 119.924 470.617 117.615V97.562C470.617 95.0553 467.978 94.9894 467.978 93.736V93.6041C467.978 93.1424 468.374 92.7466 468.967 92.4167L473.981 90.1739C475.234 89.5802 475.696 90.108 475.696 91.0974V96.3746C477.147 92.1529 480.182 89.9101 484.271 89.9101ZM316.702 180.615C317.758 183.056 319.869 183.056 319.869 184.309V184.441C319.869 184.969 319.407 185.233 318.615 185.233H309.314C308.523 185.233 308.061 184.969 308.061 184.441V184.309C308.061 183.056 311.161 182.924 310.304 180.615L307.137 172.831H285.765L282.862 180.615C281.939 182.924 285.105 183.056 285.105 184.309V184.441C285.105 184.969 284.577 185.233 283.72 185.233H277.453C276.596 185.233 276.134 184.969 276.134 184.441V184.309C276.134 183.056 278.311 183.122 279.234 180.615L293.878 143.213C294.67 141.234 291.833 140.377 291.833 139.321V139.123C291.833 138.728 292.097 138.398 292.757 138.398H296.583C298.166 138.398 299.024 138.991 299.683 140.575L316.702 180.615ZM286.886 169.995H306.016L296.121 145.522L286.886 169.995ZM348.086 153.57C348.68 153.57 349.076 153.834 349.076 154.295V154.493C349.076 155.747 346.569 156.01 345.711 158.187L335.289 183.914C334.959 184.771 334.431 185.233 333.574 185.233H331.529C330.605 185.233 330.144 184.771 329.748 183.914L317.94 158.187C316.885 156.01 315.104 155.747 315.104 154.493V154.295C315.104 153.834 315.499 153.57 316.093 153.57H325.262C325.79 153.57 326.186 153.9 326.186 154.361V154.559C326.186 155.549 323.613 156.142 324.405 158.253L333.706 181.077L342.743 158.847C343.864 155.813 340.434 155.747 340.434 154.559V154.361C340.434 153.834 340.83 153.57 341.424 153.57H348.086ZM375.126 179.956C375.521 184.046 378.82 182.594 378.82 184.243C378.82 185.233 377.039 185.629 374.598 185.629C371.629 185.629 370.046 184.903 369.782 181.275C368.265 184.046 365.099 185.893 360.283 185.893C353.027 185.893 348.014 182.264 348.014 175.932C347.948 169.599 353.225 166.169 360.086 166.169C363.582 166.169 366.418 167.159 368.199 168.808L368.067 167.027C367.342 159.243 365.231 155.021 359.954 155.021C353.093 155.021 354.149 162.541 350.851 162.541C349.267 162.541 348.278 161.617 348.278 160.1C348.278 156.604 352.763 152.91 359.954 152.91C368.067 152.91 372.949 158.121 373.806 166.829L375.126 179.956ZM361.735 183.782C366.154 183.782 369.057 180.549 368.925 176.526L368.661 173.557C368.001 170.457 365.297 168.28 361.405 168.28C356.919 168.28 353.819 171.05 353.819 175.14C353.819 179.956 356.985 183.782 361.735 183.782ZM390.425 185.893C385.346 185.893 381.915 182.66 381.915 175.932V156.208H377.562C376.968 156.208 376.572 155.813 376.572 155.219V154.559C376.572 153.966 376.902 153.57 377.562 153.57H379.936C383.103 153.57 384.62 151.063 384.95 147.303C385.016 146.446 385.477 145.984 386.071 145.984H386.731C387.522 145.984 387.786 146.446 387.786 147.303L387.852 153.57H396.955C397.483 153.57 397.945 154.031 397.945 154.559V155.219C397.945 155.813 397.483 156.208 396.955 156.208H387.852V175.998C387.852 179.626 389.567 181.539 392.008 181.539C394.91 181.539 396.626 179.824 396.889 177.581C397.285 176.591 398.868 176.657 398.868 177.845C398.868 181.935 395.702 185.893 390.425 185.893ZM426.537 179.956C426.933 184.046 430.231 182.594 430.231 184.243C430.231 185.233 428.45 185.629 426.009 185.629C423.041 185.629 421.458 184.903 421.194 181.275C419.677 184.046 416.51 185.893 411.695 185.893C404.439 185.893 399.425 182.264 399.425 175.932C399.359 169.599 404.637 166.169 411.497 166.169C414.993 166.169 417.83 167.159 419.611 168.808L419.479 167.027C418.753 159.243 416.642 155.021 411.365 155.021C404.505 155.021 405.56 162.541 402.262 162.541C400.679 162.541 399.689 161.617 399.689 160.1C399.689 156.604 404.175 152.91 411.365 152.91C419.479 152.91 424.36 158.121 425.218 166.829L426.537 179.956ZM413.146 183.782C417.566 183.782 420.468 180.549 420.336 176.526L420.072 173.557C419.413 170.457 416.708 168.28 412.816 168.28C408.331 168.28 405.23 171.05 405.23 175.14C405.23 179.956 408.397 183.782 413.146 183.782ZM446.581 152.91C450.539 152.91 452.65 155.219 452.65 157.989C452.65 159.704 451.858 161.09 450.011 161.09C446.581 161.09 448.23 156.472 444.14 156.472C440.512 156.472 438.533 160.628 438.533 165.575V180.615C438.533 182.924 441.304 182.99 441.304 184.177V184.441C441.304 184.969 440.842 185.233 439.985 185.233H431.805C430.947 185.233 430.486 184.969 430.486 184.441V184.177C430.486 182.99 432.926 182.924 432.926 180.615V160.562C432.926 158.055 430.288 157.989 430.288 156.736V156.604C430.288 156.142 430.684 155.747 431.277 155.417L436.291 153.174C437.544 152.58 438.006 153.108 438.006 154.097V159.375C439.457 155.153 442.491 152.91 446.581 152.91Z" fill="#050A0A"/>
</svg>
